<?xml version="1.0" encoding="UTF-8" standalone="no"?>
<!-- Created with Inkscape (http://www.inkscape.org/) -->

<svg
   width="180"
   height="180"
   viewBox="0 0 47.624999 47.625001"
   version="1.1"
   id="svg166"
   inkscape:export-filename="/Users/sasha/hobby/portfolio/website/example/root_files/apple-touch-icon.png"
   inkscape:export-xdpi="68.269997"
   inkscape:export-ydpi="68.269997"
   inkscape:version="1.1.1 (c3084ef, 2021-09-22)"
   sodipodi:docname="logo.svg"
   xmlns:inkscape="http://www.inkscape.org/namespaces/inkscape"
   xmlns:sodipodi="http://sodipodi.sourceforge.net/DTD/sodipodi-0.dtd"
   xmlns="http://www.w3.org/2000/svg"
   xmlns:svg="http://www.w3.org/2000/svg">
  <sodipodi:namedview
     id="namedview168"
     pagecolor="#ffffff"
     bordercolor="#666666"
     borderopacity="1.0"
     inkscape:pageshadow="2"
     inkscape:pageopacity="0.0"
     inkscape:pagecheckerboard="0"
     inkscape:document-units="mm"
     showgrid="false"
     units="px"
     showguides="true"
     inkscape:guide-bbox="true"
     inkscape:snap-page="true"
     inkscape:zoom="3.4973612"
     inkscape:cx="85.350062"
     inkscape:cy="72.340254"
     inkscape:window-width="1464"
     inkscape:window-height="916"
     inkscape:window-x="689"
     inkscape:window-y="1478"
     inkscape:window-maximized="0"
     inkscape:current-layer="layer1" />
  <defs
     id="defs163" />
  <g
     inkscape:label="Layer 1"
     inkscape:groupmode="layer"
     id="layer1">
    <circle
       style="fill:#ffffff;fill-opacity:1;stroke:none;stroke-width:1.48188;stroke-miterlimit:4;stroke-dasharray:none;stroke-opacity:1"
       id="path20407"
       cx="23.8125"
       cy="23.8125"
       r="23.8125" />
    <path
       id="path25595"
       style="font-size:49.7417px;line-height:1.25;font-family:'Arial Rounded MT Bold';-inkscape-font-specification:'Arial Rounded MT Bold, ';fill:#000000;fill-opacity:1;stroke:none;stroke-width:0.79375;stroke-miterlimit:4;stroke-dasharray:none;stroke-opacity:1"
       d="m 19.16007,17.821652 c -0.687469,-0.37647 -1.227735,-0.82652 -1.620573,-1.350306 -0.392839,-0.523785 -0.589628,-1.145831 -0.589628,-1.866035 0,-1.162149 0.572978,-2.152465 1.718758,-2.970879 1.162148,-0.834782 2.684294,-1.252119 4.566646,-1.252119 2.029668,0 3.503261,0.384625 4.419886,1.153934 0.916623,0.752941 1.702231,1.808682 2.356961,3.167249 0.507418,0.94936 0.973823,1.636831 1.399397,2.062406 0.441945,0.409207 1.080347,0.613916 1.915129,0.613916 0.916625,0 1.677439,-0.343994 2.283065,-1.031461 0.621996,-0.703837 0.933276,-1.489444 0.933276,-2.356962 0,-0.949361 -0.245338,-1.923321 -0.736389,-2.921786 C 35.31555,10.071143 34.537863,9.1219764 33.473923,8.2217211 32.409986,7.3050973 31.067758,6.5764781 29.447298,6.0363246 27.843206,5.479803 25.936435,5.2017502 23.726716,5.2017502 c -2.766239,0 -5.172644,0.4173376 -7.218681,1.25212 -2.046035,0.8184142 -3.609329,1.9970827 -4.689636,3.5357014 -1.080306,1.5386184 -1.620056,3.2981854 -1.620056,5.2787474 0,2.078772 0.507038,3.821983 1.521871,5.229655 1.031202,1.391304 2.414579,2.496112 4.149618,3.314527 1.751405,0.802046 3.92039,1.505872 6.506579,2.111499 1.931457,0.441943 3.469959,0.859282 4.615739,1.252119 1.162148,0.392841 2.103396,0.965817 2.823599,1.718758 0.736574,0.736573 1.104842,1.702096 1.104842,2.896981 0,1.505884 -0.67955,2.766332 -2.038117,3.781165 -1.3422,0.998464 -3.09333,1.497584 -5.253943,1.497584 -1.571356,0 -2.840241,-0.245343 -3.805969,-0.736391 -0.965729,-0.507415 -1.718624,-1.145817 -2.258777,-1.915128 -0.523786,-0.76931 -1.014466,-1.726911 -1.472778,-2.872692 -0.37647,-0.965729 -0.834957,-1.693831 -1.37511,-2.184879 -0.523785,-0.491051 -1.170624,-0.736907 -1.939934,-0.736907 -0.94936,0 -1.734967,0.319201 -2.356962,0.957564 -0.6056255,0.621996 -0.9084705,1.374889 -0.9084705,2.258777 0,1.522251 0.5075535,3.093982 1.5223875,4.714441 1.031201,1.604092 2.365511,2.888816 4.002339,3.854545 2.307927,1.3422 5.237726,2.013313 8.789644,2.013313 2.96266,0 5.524189,-0.491197 7.684803,-1.473295 2.160612,-0.982097 3.79725,-2.340682 4.910294,-4.075719 1.129411,-1.735039 1.694471,-3.690876 1.694471,-5.86786 0,-1.816878 -0.327639,-3.347461 -0.982369,-4.59145 -0.638363,-1.260358 -1.538465,-2.299742 -2.70061,-3.118156 -1.145781,-0.818415 -2.545514,-1.513804 -4.198712,-2.086695 l -0.328614,0.944177 c 1.581301,0.547975 2.894891,1.206555 3.945496,1.956986 0.0019,0.0014 0.0038,0.0027 0.0057,0.0041 1.034826,0.728752 1.817587,1.631754 2.384867,2.751769 0.0026,0.0047 0.0052,0.0093 0.0078,0.01395 0.561496,1.06684 0.867129,2.428169 0.867129,4.124812 0,2.00369 -0.508074,3.749334 -1.533239,5.324224 -0.0012,0.0019 -0.0024,0.0038 -0.0036,0.0057 -1.000469,1.559554 -2.464551,2.785922 -4.482415,3.703132 -2.004139,0.910974 -4.419555,1.38493 -7.271389,1.38493 -3.425093,0 -6.170123,-0.649304 -8.285283,-1.878955 -4.93e-4,-2.88e-4 -0.0016,2.86e-4 -0.0021,0 -1.502956,-0.887981 -2.711392,-2.052632 -3.660241,-3.527433 -7.89e-4,-0.0012 -7.62e-4,-0.0024 -0.0016,-0.0036 -0.935756,-1.497455 -1.365291,-2.875389 -1.365291,-4.171836 0,-0.654206 0.186063,-1.110012 0.626835,-1.562696 0.444931,-0.456639 0.913069,-0.654224 1.638661,-0.654224 0.556761,0 0.913166,0.143539 1.257804,0.466637 0.0039,0.0033 0.0079,0.0066 0.01189,0.0098 0.383233,0.348395 0.774147,0.93916 1.11311,1.808676 0.0012,0.0026 0.0024,0.0052 0.0036,0.0078 0.478678,1.196692 0.999642,2.216933 1.576647,3.064412 0.0026,0.004 0.0052,0.0079 0.0078,0.01188 0.641691,0.913924 1.529469,1.6563 2.61121,2.22467 0.0039,0.0019 0.0079,0.0038 0.01188,0.0057 1.161421,0.590552 2.584273,0.845941 4.259689,0.845941 2.314758,0 4.303103,-0.543782 5.851323,-1.695502 v -5.16e-4 -5.19e-4 -5.16e-4 -5.16e-4 c 1.548248,-1.156523 2.439644,-2.773812 2.439644,-4.580083 0,-1.395492 -0.467471,-2.667756 -1.390613,-3.595645 -0.844031,-0.87947 -1.93272,-1.5333 -3.21324,-1.966806 -1.198509,-0.410917 -2.761944,-0.833416 -4.710824,-1.279509 -2.535676,-0.593798 -4.643058,-1.280186 -6.310209,-2.042769 -8.59e-4,-4.05e-4 -0.0012,-0.0017 -0.0021,-0.0021 -1.603198,-0.756666 -2.839067,-1.751233 -3.765661,-2.999817 -0.875109,-1.217207 -1.330152,-2.726462 -1.330152,-4.638477 0,-1.798535 0.475078,-3.329723 1.439707,-4.703588 0.957812,-1.3641567 2.340779,-2.4227331 4.242117,-3.1832686 0.0019,-6.833e-4 0.0038,-0.00137 0.0057,-0.00207 1.899997,-0.7751983 4.176256,-1.177706 6.841959,-1.177706 l -5.8e-5,-4.99e-5 c 2.125423,0 3.922273,0.2712908 5.392436,0.7813477 0.004,0.00123 0.0079,0.00244 0.01188,0.00362 1.521716,0.5072382 2.743988,1.1780927 3.691247,1.9941933 0.0019,0.00207 0.0038,0.00414 0.0057,0.0062 0.982702,0.8315164 1.664634,1.6766925 2.082043,2.5254275 0.435583,0.885687 0.633037,1.703343 0.633037,2.480469 0,0.628067 -0.195982,1.141052 -0.683681,1.692919 -10e-7,6.9e-4 -10e-7,0.0014 0,0.0021 -0.440293,0.499792 -0.866643,0.691431 -1.533239,0.691431 -0.665348,0 -1.01015,-0.150219 -1.222664,-0.343648 -0.3032,-0.307797 -0.733198,-0.913302 -1.208721,-1.802992 l 0.01757,0.03721 C 30.210682,12.81351 29.34436,11.634617 28.292845,10.769369 27.098492,9.7688583 25.390478,9.3828915 23.236307,9.3828905 c -2.029071,0 -3.780558,0.4543401 -5.15059,1.4376385 -1.327888,0.94849 -2.136304,2.293958 -2.136304,3.784782 0,0.902558 0.264824,1.765933 0.789099,2.464965 0.491713,0.655619 1.151973,1.196775 1.940967,1.628842 z"
       sodipodi:nodetypes="csscscccscssccscsscccccscsccccscsccsscsccccccccsccssscccscsccccccccscccccsccccccssccccccccssccsccccscsscc" />
    <path
       id="path25595-2"
       style="font-size:49.7417px;line-height:1.25;font-family:'Arial Rounded MT Bold';-inkscape-font-specification:'Arial Rounded MT Bold, ';fill:#c35f16;fill-opacity:1;stroke:none;stroke-width:0.79375;stroke-miterlimit:4;stroke-dasharray:none;stroke-opacity:1"
       d="m 16.292965,22.906082 c -1.603198,-0.75667 -2.839067,-1.751236 -3.765661,-2.99982 -0.875109,-1.217207 -1.330152,-2.726463 -1.330152,-4.638477 0,-1.798535 0.475078,-3.329723 1.439706,-4.703588 0.957812,-1.3641566 2.34078,-2.4227331 4.242118,-3.1832686 0.0019,-6.809e-4 0.0038,-0.00137 0.0057,-0.00206 1.899995,-0.7752083 4.176254,-1.1777158 6.841957,-1.1777158 l 8.3e-5,2e-5 c 2.125423,0 3.922274,0.2712906 5.392436,0.7813474 0.004,0.00123 0.0079,0.00244 0.01188,0.00362 1.521717,0.5072383 2.743989,1.1780927 3.691247,1.9941934 0.0019,0.00207 0.0038,0.00414 0.0057,0.0062 0.982702,0.8315164 1.664634,1.6766916 2.082043,2.5254276 0.435583,0.885687 0.633037,1.703343 0.633037,2.480468 0,0.628068 -0.195982,1.141053 -0.683681,1.69292 -10e-7,6.87e-4 -10e-7,0.0014 0,0.0021 -0.440293,0.499792 -0.866643,0.691431 -1.533239,0.691431 -0.665348,0 -1.01015,-0.15022 -1.222664,-0.343649 -0.303191,-0.307791 -0.733189,-0.913296 -1.208711,-1.802986 l 0.01757,0.03721 C 30.21068,12.813506 29.344358,11.634614 28.292843,10.769365 27.09849,9.7688548 25.390475,9.382888 23.236305,9.382887 c -2.029071,0 -3.780559,0.4543401 -5.15059,1.437638 -1.327889,0.94849 -2.136304,2.293958 -2.136304,3.784782 0,0.902558 0.264824,1.765934 0.789099,2.464966 0.491713,0.655618 1.151973,1.196774 1.940967,1.628841 0.744288,0.407586 1.50414,0.729478 2.27738,0.963248 0.736825,0.222761 1.904299,0.534236 3.531568,0.945162 0.0052,0.0019 0.01032,0.0038 0.0155,0.0057 2.001181,0.468018 3.802555,0.980295 5.398638,1.538924 5.32e-4,7.01e-4 0.0011,0.0014 0.0016,0.0021 1.5813,0.547975 2.89489,1.206555 3.945495,1.956987 0.0019,0.0014 0.0038,0.0027 0.0057,0.0041 1.034825,0.728752 1.817587,1.631754 2.384867,2.751771 0.0026,0.0047 0.0052,0.0093 0.0078,0.01394 0.561496,1.06684 0.867129,2.428169 0.867129,4.124812 0,2.00369 -0.508074,3.749331 -1.533239,5.324221 -0.0012,0.0019 -0.0024,0.0038 -0.0036,0.0057 -1.000469,1.559557 -2.464551,2.785922 -4.482414,3.703132 -2.00414,0.910973 -4.419555,1.384929 -7.271391,1.384929 -3.425093,0 -6.170122,-0.649303 -8.285282,-1.878954 -5.03e-4,-2.65e-4 -0.0016,2.65e-4 -0.0021,0 -1.502956,-0.887981 -2.711393,-2.052632 -3.660242,-3.527433 -7.94e-4,-0.0013 -7.67e-4,-0.0024 -0.0016,-0.0036 -0.935756,-1.497454 -1.365291,-2.875388 -1.365291,-4.171836 0,-0.654206 0.186063,-1.110012 0.626835,-1.562695 0.444931,-0.456639 0.913069,-0.654225 1.63866,-0.654225 0.556761,0 0.913166,0.143539 1.257804,0.466638 0.0039,0.0033 0.0079,0.0066 0.01188,0.0098 0.383233,0.348395 0.774148,0.93916 1.113111,1.808676 0.0012,0.0026 0.0024,0.0052 0.0036,0.0078 0.478677,1.196692 0.999642,2.216933 1.576647,3.064412 0.0026,0.004 0.0052,0.0079 0.0078,0.01188 0.641588,0.913861 1.529366,1.656236 2.611107,2.224606 0.0039,0.0019 0.0079,0.0038 0.01188,0.0057 1.161421,0.590553 2.584272,0.845942 4.259688,0.845942 2.314758,0 4.303105,-0.543783 5.851325,-1.695503 v -5.29e-4 -5.3e-4 -5.29e-4 -5.29e-4 c 1.548246,-1.156523 2.439643,-2.773812 2.439643,-4.580083 0,-1.395492 -0.467471,-2.667757 -1.390613,-3.595645 l -0.713612,0.697673 c 0.736573,0.736573 1.104842,1.702096 1.104842,2.896981 0,1.505884 -0.679551,2.766332 -2.038117,3.781165 -1.3422,0.998464 -3.09333,1.497584 -5.253944,1.497584 -1.571356,0 -2.840241,-0.245343 -3.805969,-0.736391 C 18.856833,35.8268 18.103939,35.188398 17.563785,34.419087 17.04,33.649777 16.549319,32.692176 16.091007,31.546395 c -0.37647,-0.965729 -0.834957,-1.693831 -1.37511,-2.184879 -0.523785,-0.491051 -1.170624,-0.736907 -1.939933,-0.736907 -0.949361,0 -1.734968,0.319201 -2.356962,0.957564 -0.6056269,0.621996 -0.9084719,1.374889 -0.9084719,2.258777 0,1.522251 0.5075539,3.093982 1.5223879,4.714441 1.031201,1.604092 2.365511,2.888816 4.002339,3.854545 2.307928,1.3422 5.237727,2.013313 8.789645,2.013313 2.96266,0 5.524189,-0.491197 7.684803,-1.473295 2.160611,-0.982097 3.79725,-2.340682 4.910294,-4.075719 1.129411,-1.735039 1.694471,-3.690876 1.694471,-5.86786 0,-1.816878 -0.327639,-3.347461 -0.982369,-4.59145 -0.638363,-1.260357 -1.538465,-2.299742 -2.70061,-3.118156 -1.145781,-0.818415 -2.545514,-1.513804 -4.198713,-2.086694 -1.636826,-0.57289 -3.469738,-1.0968 -5.499405,-1.571481 -1.620459,-0.409207 -2.782772,-0.719971 -3.486609,-0.932759 -0.703835,-0.212788 -1.399227,-0.507713 -2.086694,-0.884183 -0.687468,-0.376471 -1.227735,-0.82652 -1.620573,-1.350306 -0.392839,-0.523785 -0.589628,-1.145832 -0.589628,-1.866036 0,-1.162148 0.572978,-2.152464 1.718758,-2.970878 1.162148,-0.834782 2.684294,-1.25212 4.566647,-1.25212 2.029667,0 3.50326,0.384626 4.419886,1.153935 0.916622,0.752941 1.702231,1.808681 2.356961,3.167249 0.507418,0.94936 0.973823,1.636831 1.399397,2.062406 0.441944,0.409207 1.080347,0.613916 1.915128,0.613916 0.916626,0 1.67744,-0.343994 2.283066,-1.031462 0.621996,-0.703836 0.933275,-1.489443 0.933275,-2.356962 0,-0.94936 -0.245337,-1.92332 -0.736388,-2.921785 C 35.315551,10.071143 34.537864,9.1219763 33.473924,8.2217209 32.409987,7.3050971 31.067758,6.576478 29.447299,6.0363246 c -1.604092,-0.556522 -3.510864,-0.834574 -5.720583,-0.834574 -2.766239,0 -5.172644,0.417337 -7.21868,1.2521195 C 14.462,7.2722843 12.898706,8.4509528 11.8184,9.9895715 10.738093,11.52819 10.198343,13.287757 10.198343,15.268319 c 0,2.078772 0.507038,3.821982 1.521871,5.229655 1.031202,1.391303 2.414579,2.496111 4.149618,3.314526 z"
       sodipodi:nodetypes="ccssccccccccssccsccccscssssccccccccsccssccccscsccccccccscccccsccscsccccscsccsscsccccsssscscccscssccscssccc" />
    <g
       id="g20589"
       transform="matrix(0.95023681,0,0,0.95023681,1.1849857,1.184986)">
      <path
         style="font-size:52.9167px;line-height:1.25;font-family:'Arial Rounded MT Bold';-inkscape-font-specification:'Arial Rounded MT Bold, ';fill:#000000;fill-opacity:1;stroke-width:0.999999"
         d="m 108.73828,77.431641 v 28.720699 c 1.94656,1.16409 3.6603,2.51693 5.13867,4.0625 2.92969,2.92969 4.39453,6.77083 4.39453,11.52344 0,5.98959 -2.70182,11.0026 -8.10546,15.03906 -5.33855,3.97136 -12.304686,5.95704 -20.898442,5.95704 -6.250003,-10e-6 -11.29557,-0.97657 -15.136719,-2.92969 -3.841149,-2.01823 -6.835937,-4.55729 -8.984375,-7.61719 -2.083336,-3.0599 -4.036458,-6.86849 -5.859375,-11.42578 -1.497396,-3.84115 -3.32031,-6.73828 -5.46875,-8.69141 -2.083333,-1.95312 -4.654945,-2.92969 -7.714843,-2.92969 -3.776046,1e-5 -6.901041,1.26953 -9.375,3.8086 -2.408856,2.47396 -3.613282,5.46875 -3.613282,8.98437 0,6.05469 2.018228,12.30469 6.054688,18.75 4.101566,6.38022 9.407548,11.49089 15.917969,15.33203 9.179693,5.33855 20.833325,8.00782 34.960937,8.00782 11.783862,0 21.972652,-1.95312 30.566402,-5.85938 8.59376,-3.90625 15.10417,-9.30989 19.53125,-16.21094 4.49219,-6.90104 6.73829,-14.68098 6.73829,-23.33984 0,-7.22657 -1.30208,-13.3138 -3.90625,-18.26172 -2.53907,-5.013019 -6.11979,-9.14713 -10.74219,-12.402341 -4.5573,-3.255212 -10.12369,-6.022135 -16.69922,-8.300781 -2.17618,-0.761664 -4.44807,-1.498779 -6.79883,-2.216797 z"
         transform="scale(0.26458333)"
         id="path16558" />
      <path
         style="font-size:52.9167px;line-height:1.25;font-family:'Arial Rounded MT Bold';-inkscape-font-specification:'Arial Rounded MT Bold, ';fill:#c35f16;fill-opacity:1;stroke-width:0.999999"
         d="m 89.658203,15.976562 c -11.00261,0 -20.572912,1.660155 -28.710937,4.980469 -8.138026,3.255211 -14.355467,7.942705 -18.652344,14.0625 -4.296879,6.119795 -6.445313,13.118485 -6.445313,20.996094 0,8.268236 2.018226,15.201819 6.054688,20.800781 4.101563,5.533856 9.602859,9.928383 16.503906,13.183594 3.787897,1.734644 8.083895,3.349865 12.853516,4.853516 V 66.037109 c -2.621539,-1.470337 -4.695925,-3.213706 -6.212891,-5.236328 -1.562502,-2.083336 -2.34375,-4.55729 -2.34375,-7.421875 0,-4.6224 2.278644,-8.561197 6.835938,-11.816406 4.6224,-3.320315 10.67708,-4.980469 18.164062,-4.980469 8.072922,0 13.932292,1.529946 17.578122,4.589844 3.64584,2.994794 6.77084,7.194008 9.375,12.597656 2.01823,3.776043 3.8737,6.510416 5.56641,8.203125 1.75781,1.627606 4.29687,2.441406 7.61719,2.441406 3.64583,10e-7 6.67317,-1.367185 9.08203,-4.101562 2.47396,-2.799481 3.71094,-5.924478 3.71094,-9.375 0,-3.776043 -0.97657,-7.649738 -2.92969,-11.621094 -1.95313,-3.971357 -5.04557,-7.747394 -9.27735,-11.328125 -4.23177,-3.645835 -9.5703,-6.542967 -16.01562,-8.691406 -6.38021,-2.213543 -13.96484,-3.320313 -22.753907,-3.320313 z"
         transform="scale(0.26458333)"
         id="path15463" />
    </g>
  </g>
</svg>
